<?xml version="1.0" encoding="UTF-8" standalone="no"?>
<!DOCTYPE svg PUBLIC "-//W3C//DTD SVG 1.1//EN"
 "http://www.w3.org/Graphics/SVG/1.1/DTD/svg11.dtd">
<!-- Generated by graphviz version 13.0.1 (20250615.1724)
 -->
<!-- Title: G Pages: 1 -->
<svg width="1401pt" height="540pt"
 viewBox="0.00 0.00 1401.00 540.00" xmlns="http://www.w3.org/2000/svg" xmlns:xlink="http://www.w3.org/1999/xlink">
<g id="graph0" class="graph" transform="scale(1 1) rotate(0) translate(21.6 518.35)">
<title>G</title>
<polygon fill="#111111" stroke="none" points="-21.6,21.6 -21.6,-518.35 1379.6,-518.35 1379.6,21.6 -21.6,21.6"/>
<!-- components/Button.tsx -->
<g id="node1" class="node">
<title>components/Button.tsx</title>
<path fill="none" stroke="#cfffac" d="M441.08,-65.75C441.08,-65.75 302.92,-65.75 302.92,-65.75 298.96,-65.75 295,-61.79 295,-57.83 295,-57.83 295,-49.92 295,-49.92 295,-45.96 298.96,-42 302.92,-42 302.92,-42 441.08,-42 441.08,-42 445.04,-42 449,-45.96 449,-49.92 449,-49.92 449,-57.83 449,-57.83 449,-61.79 445.04,-65.75 441.08,-65.75"/>
<text xml:space="preserve" text-anchor="middle" x="372" y="-48.45" font-family="Arial" font-size="14.00" fill="#cfffac">components/Button.tsx</text>
</g>
<!-- components/Modal.tsx -->
<g id="node2" class="node">
<title>components/Modal.tsx</title>
<path fill="none" stroke="#cfffac" d="M177.58,-86.75C177.58,-86.75 40.92,-86.75 40.92,-86.75 36.96,-86.75 33,-82.79 33,-78.83 33,-78.83 33,-70.92 33,-70.92 33,-66.96 36.96,-63 40.92,-63 40.92,-63 177.58,-63 177.58,-63 181.54,-63 185.5,-66.96 185.5,-70.92 185.5,-70.92 185.5,-78.83 185.5,-78.83 185.5,-82.79 181.54,-86.75 177.58,-86.75"/>
<text xml:space="preserve" text-anchor="middle" x="109.25" y="-69.45" font-family="Arial" font-size="14.00" fill="#cfffac">components/Modal.tsx</text>
</g>
<!-- components/ProgressBar.tsx -->
<g id="node3" class="node">
<title>components/ProgressBar.tsx</title>
<path fill="none" stroke="#cfffac" d="M458.71,-23.75C458.71,-23.75 285.29,-23.75 285.29,-23.75 281.33,-23.75 277.38,-19.79 277.38,-15.83 277.38,-15.83 277.38,-7.92 277.38,-7.92 277.38,-3.96 281.33,0 285.29,0 285.29,0 458.71,0 458.71,0 462.67,0 466.62,-3.96 466.62,-7.92 466.62,-7.92 466.62,-15.83 466.62,-15.83 466.62,-19.79 462.67,-23.75 458.71,-23.75"/>
<text xml:space="preserve" text-anchor="middle" x="372" y="-6.45" font-family="Arial" font-size="14.00" fill="#cfffac">components/ProgressBar.tsx</text>
</g>
<!-- components/VectorizeSection.tsx -->
<g id="node4" class="node">
<title>components/VectorizeSection.tsx</title>
<path fill="none" stroke="#c6c5fe" d="M209.08,-44.75C209.08,-44.75 9.42,-44.75 9.42,-44.75 5.46,-44.75 1.5,-40.79 1.5,-36.83 1.5,-36.83 1.5,-28.92 1.5,-28.92 1.5,-24.96 5.46,-21 9.42,-21 9.42,-21 209.08,-21 209.08,-21 213.04,-21 217,-24.96 217,-28.92 217,-28.92 217,-36.83 217,-36.83 217,-40.79 213.04,-44.75 209.08,-44.75"/>
<text xml:space="preserve" text-anchor="middle" x="109.25" y="-27.45" font-family="Arial" font-size="14.00" fill="#c6c5fe">components/VectorizeSection.tsx</text>
</g>
<!-- components/VectorizeSection.tsx&#45;&gt;components/Button.tsx -->
<g id="edge1" class="edge">
<title>components/VectorizeSection.tsx&#45;&gt;components/Button.tsx</title>
<path fill="none" stroke="#757575" d="M217.44,-41.51C239.34,-43.27 262.15,-45.11 283.29,-46.81"/>
<polygon fill="#757575" stroke="#757575" points="282.74,-50.28 292.99,-47.59 283.31,-43.3 282.74,-50.28"/>
</g>
<!-- components/VectorizeSection.tsx&#45;&gt;components/ProgressBar.tsx -->
<g id="edge2" class="edge">
<title>components/VectorizeSection.tsx&#45;&gt;components/ProgressBar.tsx</title>
<path fill="none" stroke="#757575" d="M217.44,-24.24C233.37,-22.96 249.79,-21.64 265.69,-20.36"/>
<polygon fill="#757575" stroke="#757575" points="265.96,-23.85 275.65,-19.55 265.4,-16.87 265.96,-23.85"/>
</g>
<!-- core/domain/Memo.ts -->
<g id="node5" class="node">
<title>core/domain/Memo.ts</title>
<path fill="none" stroke="#cfffac" d="M175.33,-128.75C175.33,-128.75 43.17,-128.75 43.17,-128.75 39.21,-128.75 35.25,-124.79 35.25,-120.83 35.25,-120.83 35.25,-112.92 35.25,-112.92 35.25,-108.96 39.21,-105 43.17,-105 43.17,-105 175.33,-105 175.33,-105 179.29,-105 183.25,-108.96 183.25,-112.92 183.25,-112.92 183.25,-120.83 183.25,-120.83 183.25,-124.79 179.29,-128.75 175.33,-128.75"/>
<text xml:space="preserve" text-anchor="middle" x="109.25" y="-111.45" font-family="Arial" font-size="14.00" fill="#cfffac">core/domain/Memo.ts</text>
</g>
<!-- core/usecases/createMemo.ts -->
<g id="node6" class="node">
<title>core/usecases/createMemo.ts</title>
<path fill="none" stroke="#c6c5fe" d="M1046.46,-248.75C1046.46,-248.75 864.79,-248.75 864.79,-248.75 860.83,-248.75 856.88,-244.79 856.88,-240.83 856.88,-240.83 856.88,-232.92 856.88,-232.92 856.88,-228.96 860.83,-225 864.79,-225 864.79,-225 1046.46,-225 1046.46,-225 1050.42,-225 1054.38,-228.96 1054.38,-232.92 1054.38,-232.92 1054.38,-240.83 1054.38,-240.83 1054.38,-244.79 1050.42,-248.75 1046.46,-248.75"/>
<text xml:space="preserve" text-anchor="middle" x="955.62" y="-231.45" font-family="Arial" font-size="14.00" fill="#c6c5fe">core/usecases/createMemo.ts</text>
</g>
<!-- infrastructure/api/apiClient.ts -->
<g id="node7" class="node">
<title>infrastructure/api/apiClient.ts</title>
<path fill="none" stroke="#cfffac" d="M1327.58,-295.75C1327.58,-295.75 1156.42,-295.75 1156.42,-295.75 1152.46,-295.75 1148.5,-291.79 1148.5,-287.83 1148.5,-287.83 1148.5,-279.92 1148.5,-279.92 1148.5,-275.96 1152.46,-272 1156.42,-272 1156.42,-272 1327.58,-272 1327.58,-272 1331.54,-272 1335.5,-275.96 1335.5,-279.92 1335.5,-279.92 1335.5,-287.83 1335.5,-287.83 1335.5,-291.79 1331.54,-295.75 1327.58,-295.75"/>
<text xml:space="preserve" text-anchor="middle" x="1242" y="-278.45" font-family="Arial" font-size="14.00" fill="#cfffac">infrastructure/api/apiClient.ts</text>
</g>
<!-- core/usecases/createMemo.ts&#45;&gt;infrastructure/api/apiClient.ts -->
<g id="edge3" class="edge">
<title>core/usecases/createMemo.ts&#45;&gt;infrastructure/api/apiClient.ts</title>
<path fill="none" stroke="#757575" d="M1036.35,-249.24C1054.02,-252.03 1072.65,-255.02 1090,-257.88 1112.57,-261.59 1137.01,-265.75 1159.52,-269.62"/>
<polygon fill="#757575" stroke="#757575" points="1158.8,-273.05 1169.25,-271.3 1159.99,-266.15 1158.8,-273.05"/>
</g>
<!-- interfaces/dtos/MemoCreateDTO.ts -->
<g id="node8" class="node">
<title>interfaces/dtos/MemoCreateDTO.ts</title>
<path fill="none" stroke="#cfffac" d="M1349.33,-233.75C1349.33,-233.75 1134.67,-233.75 1134.67,-233.75 1130.71,-233.75 1126.75,-229.79 1126.75,-225.83 1126.75,-225.83 1126.75,-217.92 1126.75,-217.92 1126.75,-213.96 1130.71,-210 1134.67,-210 1134.67,-210 1349.33,-210 1349.33,-210 1353.29,-210 1357.25,-213.96 1357.25,-217.92 1357.25,-217.92 1357.25,-225.83 1357.25,-225.83 1357.25,-229.79 1353.29,-233.75 1349.33,-233.75"/>
<text xml:space="preserve" text-anchor="middle" x="1242" y="-216.45" font-family="Arial" font-size="14.00" fill="#cfffac">interfaces/dtos/MemoCreateDTO.ts</text>
</g>
<!-- core/usecases/createMemo.ts&#45;&gt;interfaces/dtos/MemoCreateDTO.ts -->
<g id="edge4" class="edge">
<title>core/usecases/createMemo.ts&#45;&gt;interfaces/dtos/MemoCreateDTO.ts</title>
<path fill="none" stroke="#757575" d="M1054.49,-231.71C1074.01,-230.68 1094.77,-229.59 1115.08,-228.52"/>
<polygon fill="#757575" stroke="#757575" points="1114.99,-232.03 1124.8,-228 1114.63,-225.04 1114.99,-232.03"/>
</g>
<!-- core/usecases/searchMemos.ts -->
<g id="node9" class="node">
<title>core/usecases/searchMemos.ts</title>
<path fill="none" stroke="#c6c5fe" d="M1051.33,-332.75C1051.33,-332.75 859.92,-332.75 859.92,-332.75 855.96,-332.75 852,-328.79 852,-324.83 852,-324.83 852,-316.92 852,-316.92 852,-312.96 855.96,-309 859.92,-309 859.92,-309 1051.33,-309 1051.33,-309 1055.29,-309 1059.25,-312.96 1059.25,-316.92 1059.25,-316.92 1059.25,-324.83 1059.25,-324.83 1059.25,-328.79 1055.29,-332.75 1051.33,-332.75"/>
<text xml:space="preserve" text-anchor="middle" x="955.62" y="-315.45" font-family="Arial" font-size="14.00" fill="#c6c5fe">core/usecases/searchMemos.ts</text>
</g>
<!-- core/usecases/searchMemos.ts&#45;&gt;infrastructure/api/apiClient.ts -->
<g id="edge5" class="edge">
<title>core/usecases/searchMemos.ts&#45;&gt;infrastructure/api/apiClient.ts</title>
<path fill="none" stroke="#757575" d="M1051.71,-308.5C1079.1,-304.94 1109.12,-301.03 1137.02,-297.4"/>
<polygon fill="#757575" stroke="#757575" points="1137.45,-300.88 1146.92,-296.12 1136.55,-293.94 1137.45,-300.88"/>
</g>
<!-- interfaces/dtos/SearchResultDTO.ts -->
<g id="node10" class="node">
<title>interfaces/dtos/SearchResultDTO.ts</title>
<path fill="none" stroke="#cfffac" d="M1350.08,-347.75C1350.08,-347.75 1133.92,-347.75 1133.92,-347.75 1129.96,-347.75 1126,-343.79 1126,-339.83 1126,-339.83 1126,-331.92 1126,-331.92 1126,-327.96 1129.96,-324 1133.92,-324 1133.92,-324 1350.08,-324 1350.08,-324 1354.04,-324 1358,-327.96 1358,-331.92 1358,-331.92 1358,-339.83 1358,-339.83 1358,-343.79 1354.04,-347.75 1350.08,-347.75"/>
<text xml:space="preserve" text-anchor="middle" x="1242" y="-330.45" font-family="Arial" font-size="14.00" fill="#cfffac">interfaces/dtos/SearchResultDTO.ts</text>
</g>
<!-- core/usecases/searchMemos.ts&#45;&gt;interfaces/dtos/SearchResultDTO.ts -->
<g id="edge6" class="edge">
<title>core/usecases/searchMemos.ts&#45;&gt;interfaces/dtos/SearchResultDTO.ts</title>
<path fill="none" stroke="#757575" d="M1059.69,-326.31C1077.46,-327.25 1096.12,-328.23 1114.42,-329.2"/>
<polygon fill="#757575" stroke="#757575" points="1114.08,-332.69 1124.25,-329.72 1114.45,-325.69 1114.08,-332.69"/>
</g>
<!-- hooks/useDebounce.ts -->
<g id="node11" class="node">
<title>hooks/useDebounce.ts</title>
<path fill="none" stroke="#cfffac" d="M1024.33,-454.75C1024.33,-454.75 886.92,-454.75 886.92,-454.75 882.96,-454.75 879,-450.79 879,-446.83 879,-446.83 879,-438.92 879,-438.92 879,-434.96 882.96,-431 886.92,-431 886.92,-431 1024.33,-431 1024.33,-431 1028.29,-431 1032.25,-434.96 1032.25,-438.92 1032.25,-438.92 1032.25,-446.83 1032.25,-446.83 1032.25,-450.79 1028.29,-454.75 1024.33,-454.75"/>
<text xml:space="preserve" text-anchor="middle" x="955.62" y="-437.45" font-family="Arial" font-size="14.00" fill="#cfffac">hooks/useDebounce.ts</text>
</g>
<!-- hooks/useIncrementalVectorize.ts -->
<g id="node12" class="node">
<title>hooks/useIncrementalVectorize.ts</title>
<path fill="none" stroke="#cfffac" d="M210.58,-247.75C210.58,-247.75 7.92,-247.75 7.92,-247.75 3.96,-247.75 0,-243.79 0,-239.83 0,-239.83 0,-231.92 0,-231.92 0,-227.96 3.96,-224 7.92,-224 7.92,-224 210.58,-224 210.58,-224 214.54,-224 218.5,-227.96 218.5,-231.92 218.5,-231.92 218.5,-239.83 218.5,-239.83 218.5,-243.79 214.54,-247.75 210.58,-247.75"/>
<text xml:space="preserve" text-anchor="middle" x="109.25" y="-230.45" font-family="Arial" font-size="14.00" fill="#cfffac">hooks/useIncrementalVectorize.ts</text>
</g>
<!-- hooks/useVectorizeProgress.ts -->
<g id="node13" class="node">
<title>hooks/useVectorizeProgress.ts</title>
<path fill="none" stroke="#cfffac" d="M201.96,-348.75C201.96,-348.75 16.54,-348.75 16.54,-348.75 12.58,-348.75 8.62,-344.79 8.62,-340.83 8.62,-340.83 8.62,-332.92 8.62,-332.92 8.62,-328.96 12.58,-325 16.54,-325 16.54,-325 201.96,-325 201.96,-325 205.92,-325 209.88,-328.96 209.88,-332.92 209.88,-332.92 209.88,-340.83 209.88,-340.83 209.88,-344.79 205.92,-348.75 201.96,-348.75"/>
<text xml:space="preserve" text-anchor="middle" x="109.25" y="-331.45" font-family="Arial" font-size="14.00" fill="#cfffac">hooks/useVectorizeProgress.ts</text>
</g>
<!-- infrastructure/utils/formatDate.ts -->
<g id="node14" class="node">
<title>infrastructure/utils/formatDate.ts</title>
<path fill="none" stroke="#cfffac" d="M205.33,-419.75C205.33,-419.75 13.17,-419.75 13.17,-419.75 9.21,-419.75 5.25,-415.79 5.25,-411.83 5.25,-411.83 5.25,-403.92 5.25,-403.92 5.25,-399.96 9.21,-396 13.17,-396 13.17,-396 205.33,-396 205.33,-396 209.29,-396 213.25,-399.96 213.25,-403.92 213.25,-403.92 213.25,-411.83 213.25,-411.83 213.25,-415.79 209.29,-419.75 205.33,-419.75"/>
<text xml:space="preserve" text-anchor="middle" x="109.25" y="-402.45" font-family="Arial" font-size="14.00" fill="#cfffac">infrastructure/utils/formatDate.ts</text>
</g>
<!-- interfaces/controllers/useCreateMemo.ts -->
<g id="node15" class="node">
<title>interfaces/controllers/useCreateMemo.ts</title>
<path fill="none" stroke="#c6c5fe" d="M777.33,-210.75C777.33,-210.75 533.42,-210.75 533.42,-210.75 529.46,-210.75 525.5,-206.79 525.5,-202.83 525.5,-202.83 525.5,-194.92 525.5,-194.92 525.5,-190.96 529.46,-187 533.42,-187 533.42,-187 777.33,-187 777.33,-187 781.29,-187 785.25,-190.96 785.25,-194.92 785.25,-194.92 785.25,-202.83 785.25,-202.83 785.25,-206.79 781.29,-210.75 777.33,-210.75"/>
<text xml:space="preserve" text-anchor="middle" x="655.38" y="-193.45" font-family="Arial" font-size="14.00" fill="#c6c5fe">interfaces/controllers/useCreateMemo.ts</text>
</g>
<!-- interfaces/controllers/useCreateMemo.ts&#45;&gt;core/usecases/createMemo.ts -->
<g id="edge7" class="edge">
<title>interfaces/controllers/useCreateMemo.ts&#45;&gt;core/usecases/createMemo.ts</title>
<path fill="none" stroke="#757575" d="M753.21,-211.21C782.98,-215.01 815.93,-219.2 846.41,-223.09"/>
<polygon fill="#757575" stroke="#757575" points="845.65,-226.52 856.01,-224.31 846.53,-219.57 845.65,-226.52"/>
</g>
<!-- interfaces/controllers/useCreateMemo.ts&#45;&gt;interfaces/dtos/MemoCreateDTO.ts -->
<g id="edge8" class="edge">
<title>interfaces/controllers/useCreateMemo.ts&#45;&gt;interfaces/dtos/MemoCreateDTO.ts</title>
<path fill="none" stroke="#757575" d="M785.4,-203.92C871.64,-207.29 987.62,-211.83 1090,-215.88 1098.2,-216.2 1106.66,-216.53 1115.18,-216.87"/>
<polygon fill="#757575" stroke="#757575" points="1114.76,-220.36 1124.89,-217.26 1115.03,-213.36 1114.76,-220.36"/>
</g>
<!-- interfaces/controllers/useSearchMemos.ts -->
<g id="node16" class="node">
<title>interfaces/controllers/useSearchMemos.ts</title>
<path fill="none" stroke="#c6c5fe" d="M1082.08,-496.75C1082.08,-496.75 829.17,-496.75 829.17,-496.75 825.21,-496.75 821.25,-492.79 821.25,-488.83 821.25,-488.83 821.25,-480.92 821.25,-480.92 821.25,-476.96 825.21,-473 829.17,-473 829.17,-473 1082.08,-473 1082.08,-473 1086.04,-473 1090,-476.96 1090,-480.92 1090,-480.92 1090,-488.83 1090,-488.83 1090,-492.79 1086.04,-496.75 1082.08,-496.75"/>
<text xml:space="preserve" text-anchor="middle" x="955.62" y="-479.45" font-family="Arial" font-size="14.00" fill="#c6c5fe">interfaces/controllers/useSearchMemos.ts</text>
</g>
<!-- interfaces/controllers/useSearchMemos.ts&#45;&gt;interfaces/dtos/SearchResultDTO.ts -->
<g id="edge9" class="edge">
<title>interfaces/controllers/useSearchMemos.ts&#45;&gt;interfaces/dtos/SearchResultDTO.ts</title>
<path fill="none" stroke="#757575" d="M1066.53,-472.59C1074.63,-470.17 1082.54,-467.29 1090,-463.88 1145.82,-438.3 1197.27,-386.08 1223.27,-356.86"/>
<polygon fill="#757575" stroke="#757575" points="1225.85,-359.22 1229.79,-349.38 1220.58,-354.62 1225.85,-359.22"/>
</g>
<!-- interfaces/presenters/HomePage.tsx -->
<g id="node17" class="node">
<title>interfaces/presenters/HomePage.tsx</title>
<path fill="none" stroke="#c6c5fe" d="M481.58,-170.75C481.58,-170.75 262.42,-170.75 262.42,-170.75 258.46,-170.75 254.5,-166.79 254.5,-162.83 254.5,-162.83 254.5,-154.92 254.5,-154.92 254.5,-150.96 258.46,-147 262.42,-147 262.42,-147 481.58,-147 481.58,-147 485.54,-147 489.5,-150.96 489.5,-154.92 489.5,-154.92 489.5,-162.83 489.5,-162.83 489.5,-166.79 485.54,-170.75 481.58,-170.75"/>
<text xml:space="preserve" text-anchor="middle" x="372" y="-153.45" font-family="Arial" font-size="14.00" fill="#c6c5fe">interfaces/presenters/HomePage.tsx</text>
</g>
<!-- interfaces/presenters/HomePage.tsx&#45;&gt;interfaces/dtos/MemoCreateDTO.ts -->
<g id="edge11" class="edge">
<title>interfaces/presenters/HomePage.tsx&#45;&gt;interfaces/dtos/MemoCreateDTO.ts</title>
<path fill="none" stroke="#757575" d="M489.71,-162.25C631.84,-167.16 879.07,-178.27 1090,-200.88 1108.81,-202.89 1128.89,-205.42 1148.06,-208.01"/>
<polygon fill="#757575" stroke="#757575" points="1147.34,-211.45 1157.72,-209.34 1148.29,-204.51 1147.34,-211.45"/>
</g>
<!-- interfaces/presenters/HomePage.tsx&#45;&gt;interfaces/controllers/useCreateMemo.ts -->
<g id="edge10" class="edge">
<title>interfaces/presenters/HomePage.tsx&#45;&gt;interfaces/controllers/useCreateMemo.ts</title>
<path fill="none" stroke="#757575" d="M459.72,-171.2C490.34,-175.56 524.98,-180.48 556.47,-184.96"/>
<polygon fill="#757575" stroke="#757575" points="555.57,-188.36 565.96,-186.31 556.55,-181.43 555.57,-188.36"/>
</g>
<!-- styles/HomePage.module.css -->
<g id="node18" class="node">
<title>styles/HomePage.module.css</title>
<path fill="none" stroke="#cfffac" d="M745.08,-130.75C745.08,-130.75 565.67,-130.75 565.67,-130.75 561.71,-130.75 557.75,-126.79 557.75,-122.83 557.75,-122.83 557.75,-114.92 557.75,-114.92 557.75,-110.96 561.71,-107 565.67,-107 565.67,-107 745.08,-107 745.08,-107 749.04,-107 753,-110.96 753,-114.92 753,-114.92 753,-122.83 753,-122.83 753,-126.79 749.04,-130.75 745.08,-130.75"/>
<text xml:space="preserve" text-anchor="middle" x="655.38" y="-113.45" font-family="Arial" font-size="14.00" fill="#cfffac">styles/HomePage.module.css</text>
</g>
<!-- interfaces/presenters/HomePage.tsx&#45;&gt;styles/HomePage.module.css -->
<g id="edge12" class="edge">
<title>interfaces/presenters/HomePage.tsx&#45;&gt;styles/HomePage.module.css</title>
<path fill="none" stroke="#757575" d="M459.72,-146.55C490.34,-142.19 524.98,-137.27 556.47,-132.79"/>
<polygon fill="#757575" stroke="#757575" points="556.55,-136.32 565.96,-131.44 555.57,-129.39 556.55,-136.32"/>
</g>
<!-- interfaces/presenters/SearchPage.tsx -->
<g id="node19" class="node">
<title>interfaces/presenters/SearchPage.tsx</title>
<path fill="none" stroke="#c6c5fe" d="M767.96,-434.75C767.96,-434.75 542.79,-434.75 542.79,-434.75 538.83,-434.75 534.88,-430.79 534.88,-426.83 534.88,-426.83 534.88,-418.92 534.88,-418.92 534.88,-414.96 538.83,-411 542.79,-411 542.79,-411 767.96,-411 767.96,-411 771.92,-411 775.88,-414.96 775.88,-418.92 775.88,-418.92 775.88,-426.83 775.88,-426.83 775.88,-430.79 771.92,-434.75 767.96,-434.75"/>
<text xml:space="preserve" text-anchor="middle" x="655.38" y="-417.45" font-family="Arial" font-size="14.00" fill="#c6c5fe">interfaces/presenters/SearchPage.tsx</text>
</g>
<!-- interfaces/presenters/SearchPage.tsx&#45;&gt;interfaces/dtos/SearchResultDTO.ts -->
<g id="edge15" class="edge">
<title>interfaces/presenters/SearchPage.tsx&#45;&gt;interfaces/dtos/SearchResultDTO.ts</title>
<path fill="none" stroke="#757575" d="M776.09,-419.12C863.73,-414.68 985.15,-404.99 1090,-383.88 1127.47,-376.33 1168.74,-362.84 1198.66,-352.07"/>
<polygon fill="#757575" stroke="#757575" points="1199.52,-355.48 1207.71,-348.77 1197.12,-348.91 1199.52,-355.48"/>
</g>
<!-- interfaces/presenters/SearchPage.tsx&#45;&gt;hooks/useDebounce.ts -->
<g id="edge13" class="edge">
<title>interfaces/presenters/SearchPage.tsx&#45;&gt;hooks/useDebounce.ts</title>
<path fill="none" stroke="#757575" d="M775.97,-430.89C806.58,-432.95 838.93,-435.12 867.56,-437.04"/>
<polygon fill="#757575" stroke="#757575" points="867.03,-440.51 877.25,-437.69 867.5,-433.52 867.03,-440.51"/>
</g>
<!-- interfaces/presenters/SearchPage.tsx&#45;&gt;interfaces/controllers/useSearchMemos.ts -->
<g id="edge14" class="edge">
<title>interfaces/presenters/SearchPage.tsx&#45;&gt;interfaces/controllers/useSearchMemos.ts</title>
<path fill="none" stroke="#757575" d="M701.27,-435.17C734.29,-443.93 780.34,-455.59 821.25,-463.88 833.03,-466.26 845.45,-468.54 857.77,-470.65"/>
<polygon fill="#757575" stroke="#757575" points="857.11,-474.09 867.55,-472.29 858.27,-467.18 857.11,-474.09"/>
</g>
<!-- styles/SearchPage.module.css -->
<g id="node20" class="node">
<title>styles/SearchPage.module.css</title>
<path fill="none" stroke="#cfffac" d="M1048.33,-374.75C1048.33,-374.75 862.92,-374.75 862.92,-374.75 858.96,-374.75 855,-370.79 855,-366.83 855,-366.83 855,-358.92 855,-358.92 855,-354.96 858.96,-351 862.92,-351 862.92,-351 1048.33,-351 1048.33,-351 1052.29,-351 1056.25,-354.96 1056.25,-358.92 1056.25,-358.92 1056.25,-366.83 1056.25,-366.83 1056.25,-370.79 1052.29,-374.75 1048.33,-374.75"/>
<text xml:space="preserve" text-anchor="middle" x="955.62" y="-357.45" font-family="Arial" font-size="14.00" fill="#cfffac">styles/SearchPage.module.css</text>
</g>
<!-- interfaces/presenters/SearchPage.tsx&#45;&gt;styles/SearchPage.module.css -->
<g id="edge16" class="edge">
<title>interfaces/presenters/SearchPage.tsx&#45;&gt;styles/SearchPage.module.css</title>
<path fill="none" stroke="#757575" d="M715.48,-410.52C746.89,-404 786.15,-395.92 821.25,-388.88 840.01,-385.11 860.28,-381.12 879.21,-377.43"/>
<polygon fill="#757575" stroke="#757575" points="879.86,-380.87 889,-375.52 878.52,-374 879.86,-380.87"/>
</g>
<!-- lib/apiClient.ts -->
<g id="node21" class="node">
<title>lib/apiClient.ts</title>
<path fill="none" stroke="#c6c5fe" d="M997.71,-290.75C997.71,-290.75 913.54,-290.75 913.54,-290.75 909.58,-290.75 905.62,-286.79 905.62,-282.83 905.62,-282.83 905.62,-274.92 905.62,-274.92 905.62,-270.96 909.58,-267 913.54,-267 913.54,-267 997.71,-267 997.71,-267 1001.67,-267 1005.62,-270.96 1005.62,-274.92 1005.62,-274.92 1005.62,-282.83 1005.62,-282.83 1005.62,-286.79 1001.67,-290.75 997.71,-290.75"/>
<text xml:space="preserve" text-anchor="middle" x="955.62" y="-273.45" font-family="Arial" font-size="14.00" fill="#c6c5fe">lib/apiClient.ts</text>
</g>
<!-- lib/apiClient.ts&#45;&gt;interfaces/dtos/MemoCreateDTO.ts -->
<g id="edge17" class="edge">
<title>lib/apiClient.ts&#45;&gt;interfaces/dtos/MemoCreateDTO.ts</title>
<path fill="none" stroke="#757575" d="M1005.88,-272.06C1031.12,-268.32 1062.29,-263.35 1090,-257.88 1120.67,-251.81 1154.56,-243.85 1182.44,-236.96"/>
<polygon fill="#757575" stroke="#757575" points="1183.28,-240.36 1192.13,-234.54 1181.58,-233.57 1183.28,-240.36"/>
</g>
<!-- lib/apiClient.ts&#45;&gt;interfaces/dtos/SearchResultDTO.ts -->
<g id="edge18" class="edge">
<title>lib/apiClient.ts&#45;&gt;interfaces/dtos/SearchResultDTO.ts</title>
<path fill="none" stroke="#757575" d="M1005.88,-285.69C1031.12,-289.43 1062.29,-294.4 1090,-299.88 1120.67,-305.94 1154.56,-313.9 1182.44,-320.79"/>
<polygon fill="#757575" stroke="#757575" points="1181.58,-324.18 1192.13,-323.21 1183.28,-317.39 1181.58,-324.18"/>
</g>
<!-- pages/_app.tsx -->
<g id="node22" class="node">
<title>pages/_app.tsx</title>
<path fill="none" stroke="#c6c5fe" d="M155.08,-476.75C155.08,-476.75 63.42,-476.75 63.42,-476.75 59.46,-476.75 55.5,-472.79 55.5,-468.83 55.5,-468.83 55.5,-460.92 55.5,-460.92 55.5,-456.96 59.46,-453 63.42,-453 63.42,-453 155.08,-453 155.08,-453 159.04,-453 163,-456.96 163,-460.92 163,-460.92 163,-468.83 163,-468.83 163,-472.79 159.04,-476.75 155.08,-476.75"/>
<text xml:space="preserve" text-anchor="middle" x="109.25" y="-459.45" font-family="Arial" font-size="14.00" fill="#c6c5fe">pages/_app.tsx</text>
</g>
<!-- styles/globals.css -->
<g id="node23" class="node">
<title>styles/globals.css</title>
<path fill="none" stroke="#cfffac" d="M424.58,-476.75C424.58,-476.75 319.42,-476.75 319.42,-476.75 315.46,-476.75 311.5,-472.79 311.5,-468.83 311.5,-468.83 311.5,-460.92 311.5,-460.92 311.5,-456.96 315.46,-453 319.42,-453 319.42,-453 424.58,-453 424.58,-453 428.54,-453 432.5,-456.96 432.5,-460.92 432.5,-460.92 432.5,-468.83 432.5,-468.83 432.5,-472.79 428.54,-476.75 424.58,-476.75"/>
<text xml:space="preserve" text-anchor="middle" x="372" y="-459.45" font-family="Arial" font-size="14.00" fill="#cfffac">styles/globals.css</text>
</g>
<!-- pages/_app.tsx&#45;&gt;styles/globals.css -->
<g id="edge19" class="edge">
<title>pages/_app.tsx&#45;&gt;styles/globals.css</title>
<path fill="none" stroke="#757575" d="M163.33,-464.88C202.7,-464.88 256.78,-464.88 299.88,-464.88"/>
<polygon fill="#757575" stroke="#757575" points="299.64,-468.38 309.64,-464.88 299.64,-461.38 299.64,-468.38"/>
</g>
<!-- pages/index.tsx -->
<g id="node24" class="node">
<title>pages/index.tsx</title>
<path fill="none" stroke="#c6c5fe" d="M156.21,-170.75C156.21,-170.75 62.29,-170.75 62.29,-170.75 58.33,-170.75 54.38,-166.79 54.38,-162.83 54.38,-162.83 54.38,-154.92 54.38,-154.92 54.38,-150.96 58.33,-147 62.29,-147 62.29,-147 156.21,-147 156.21,-147 160.17,-147 164.12,-150.96 164.12,-154.92 164.12,-154.92 164.12,-162.83 164.12,-162.83 164.12,-166.79 160.17,-170.75 156.21,-170.75"/>
<text xml:space="preserve" text-anchor="middle" x="109.25" y="-153.45" font-family="Arial" font-size="14.00" fill="#c6c5fe">pages/index.tsx</text>
</g>
<!-- pages/index.tsx&#45;&gt;interfaces/presenters/HomePage.tsx -->
<g id="edge20" class="edge">
<title>pages/index.tsx&#45;&gt;interfaces/presenters/HomePage.tsx</title>
<path fill="none" stroke="#757575" d="M164.59,-158.88C187.49,-158.88 215.18,-158.88 242.75,-158.88"/>
<polygon fill="#757575" stroke="#757575" points="242.62,-162.38 252.62,-158.88 242.62,-155.38 242.62,-162.38"/>
</g>
<!-- pages/search.tsx -->
<g id="node25" class="node">
<title>pages/search.tsx</title>
<path fill="none" stroke="#c6c5fe" d="M423.08,-434.75C423.08,-434.75 320.92,-434.75 320.92,-434.75 316.96,-434.75 313,-430.79 313,-426.83 313,-426.83 313,-418.92 313,-418.92 313,-414.96 316.96,-411 320.92,-411 320.92,-411 423.08,-411 423.08,-411 427.04,-411 431,-414.96 431,-418.92 431,-418.92 431,-426.83 431,-426.83 431,-430.79 427.04,-434.75 423.08,-434.75"/>
<text xml:space="preserve" text-anchor="middle" x="372" y="-417.45" font-family="Arial" font-size="14.00" fill="#c6c5fe">pages/search.tsx</text>
</g>
<!-- pages/search.tsx&#45;&gt;interfaces/presenters/SearchPage.tsx -->
<g id="edge21" class="edge">
<title>pages/search.tsx&#45;&gt;interfaces/presenters/SearchPage.tsx</title>
<path fill="none" stroke="#757575" d="M431.3,-422.88C458.08,-422.88 491.02,-422.88 523.27,-422.88"/>
<polygon fill="#757575" stroke="#757575" points="523.13,-426.38 533.13,-422.88 523.13,-419.38 523.13,-426.38"/>
</g>
</g>
</svg>
