<?xml version="1.0" encoding="UTF-8" standalone="no"?>
<!DOCTYPE svg PUBLIC "-//W3C//DTD SVG 1.1//EN"
 "http://www.w3.org/Graphics/SVG/1.1/DTD/svg11.dtd">
<!-- Generated by graphviz version 13.0.1 (20250615.1724)
 -->
<!-- Title: G Pages: 1 -->
<svg width="1069pt" height="517pt"
 viewBox="0.00 0.00 1069.00 517.00" xmlns="http://www.w3.org/2000/svg" xmlns:xlink="http://www.w3.org/1999/xlink">
<g id="graph0" class="graph" transform="scale(1 1) rotate(0) translate(4 513.26)">
<title>G</title><style>.edge>path:hover{stroke-width:8}</style>
<polygon fill="white" stroke="none" points="-4,4 -4,-513.26 1065.3,-513.26 1065.3,4 -4,4"/>
<!-- anyio -->
<g id="node1" class="node">
<title>anyio</title><style>.edge>path:hover{stroke-width:8}</style>
<ellipse fill="#b65353" stroke="black" cx="516.09" cy="-283.65" rx="27" ry="18"/>
<text xml:space="preserve" text-anchor="middle" x="516.09" y="-279.78" font-family="Helvetica,sans-Serif" font-size="10.00" fill="#ffffff">anyio</text>
</g>
<!-- src_usecases_incremental_vectorize -->
<g id="node18" class="node">
<title>src_usecases_incremental_vectorize</title><style>.edge>path:hover{stroke-width:8}</style>
<ellipse fill="#79346f" stroke="black" cx="199.09" cy="-29.52" rx="78.67" ry="29.52"/>
<text xml:space="preserve" text-anchor="middle" x="199.09" y="-36.9" font-family="Helvetica,sans-Serif" font-size="10.00" fill="#ffffff">src.</text>
<text xml:space="preserve" text-anchor="middle" x="199.09" y="-25.65" font-family="Helvetica,sans-Serif" font-size="10.00" fill="#ffffff">usecases.</text>
<text xml:space="preserve" text-anchor="middle" x="199.09" y="-14.4" font-family="Helvetica,sans-Serif" font-size="10.00" fill="#ffffff">incremental_vectorize</text>
</g>
<!-- anyio&#45;&gt;src_usecases_incremental_vectorize -->
<g id="edge1" class="edge">
<title>anyio&#45;&gt;src_usecases_incremental_vectorize</title><style>.edge>path:hover{stroke-width:8}</style>
<path fill="none" stroke="black" d="M516.28,-265.38C516.43,-248.18 516.54,-221.05 516.09,-197.57"/>
</g>
<!-- anyio_to_thread -->
<g id="node2" class="node">
<title>anyio_to_thread</title><style>.edge>path:hover{stroke-width:8}</style>
<ellipse fill="#b65353" stroke="black" cx="393.09" cy="-283.65" rx="39.95" ry="21.57"/>
<text xml:space="preserve" text-anchor="middle" x="393.09" y="-285.4" font-family="Helvetica,sans-Serif" font-size="10.00" fill="#ffffff">anyio.</text>
<text xml:space="preserve" text-anchor="middle" x="393.09" y="-274.15" font-family="Helvetica,sans-Serif" font-size="10.00" fill="#ffffff">to_thread</text>
</g>
<!-- anyio_to_thread&#45;&gt;src_usecases_incremental_vectorize -->
<g id="edge2" class="edge">
<title>anyio_to_thread&#45;&gt;src_usecases_incremental_vectorize</title><style>.edge>path:hover{stroke-width:8}</style>
<path fill="none" stroke="black" d="M516.09,-195.57C534,-91.04 386.7,-52.52 286.8,-38.46"/>
<polygon fill="#b65353" stroke="black" points="287.35,-35 276.98,-37.14 286.42,-41.94 287.35,-35"/>
<path fill="none" stroke="black" d="M423,-269.01C459.54,-251.34 516.52,-220.15 516.09,-197.57"/>
</g>
<!-- fastapi -->
<g id="node3" class="node">
<title>fastapi</title><style>.edge>path:hover{stroke-width:8}</style>
<ellipse fill="#ceb93b" stroke="black" cx="122.09" cy="-283.65" rx="27" ry="18"/>
<text xml:space="preserve" text-anchor="middle" x="122.09" y="-279.78" font-family="Helvetica,sans-Serif" font-size="10.00" fill="#000000">fastapi</text>
</g>
<!-- src_main -->
<g id="node14" class="node">
<title>src_main</title><style>.edge>path:hover{stroke-width:8}</style>
<ellipse fill="#96408a" stroke="black" cx="261.09" cy="-113.04" rx="31.66" ry="18"/>
<text xml:space="preserve" text-anchor="middle" x="261.09" y="-109.17" font-family="Helvetica,sans-Serif" font-size="10.00" fill="#ffffff">src.main</text>
</g>
<!-- fastapi&#45;&gt;src_main -->
<g id="edge3" class="edge">
<title>fastapi&#45;&gt;src_main</title><style>.edge>path:hover{stroke-width:8}</style>
<path fill="none" stroke="black" d="M199.09,-195.57C206.92,-182.5 209.06,-179.31 218.09,-167.04 225.18,-157.41 233.36,-147.14 240.68,-138.22"/>
<polygon fill="#ceb93b" stroke="black" points="243.25,-140.61 246.93,-130.67 237.86,-136.14 243.25,-140.61"/>
</g>
<!-- src_usecases_get_progress -->
<g id="node17" class="node">
<title>src_usecases_get_progress</title><style>.edge>path:hover{stroke-width:8}</style>
<ellipse fill="#b34ca4" stroke="black" cx="51.09" cy="-29.52" rx="51.09" ry="29.52"/>
<text xml:space="preserve" text-anchor="middle" x="51.09" y="-36.9" font-family="Helvetica,sans-Serif" font-size="10.00" fill="#ffffff">src.</text>
<text xml:space="preserve" text-anchor="middle" x="51.09" y="-25.65" font-family="Helvetica,sans-Serif" font-size="10.00" fill="#ffffff">usecases.</text>
<text xml:space="preserve" text-anchor="middle" x="51.09" y="-14.4" font-family="Helvetica,sans-Serif" font-size="10.00" fill="#ffffff">get_progress</text>
</g>
<!-- fastapi&#45;&gt;src_usecases_get_progress -->
<g id="edge4" class="edge">
<title>fastapi&#45;&gt;src_usecases_get_progress</title><style>.edge>path:hover{stroke-width:8}</style>
<path fill="none" stroke="black" d="M199.09,-195.57C217.71,-164.48 211.94,-147.92 199.09,-114.04"/>
<path fill="none" stroke="black" d="M137.96,-268.73C155.09,-252.96 182.2,-225.77 199.09,-197.57"/>
<path fill="none" stroke="black" d="M199.09,-112.04C197.04,-106.64 141.48,-77.03 99.04,-55.04"/>
<polygon fill="#ceb93b" stroke="black" points="100.68,-51.95 90.19,-50.47 97.47,-58.17 100.68,-51.95"/>
</g>
<!-- fastapi&#45;&gt;src_usecases_incremental_vectorize -->
<g id="edge5" class="edge">
<title>fastapi&#45;&gt;src_usecases_incremental_vectorize</title><style>.edge>path:hover{stroke-width:8}</style>
<path fill="none" stroke="black" d="M199.09,-112.04C194.2,-99.15 193.03,-84.26 193.46,-70.76"/>
<polygon fill="#ceb93b" stroke="black" points="196.95,-71.05 194.1,-60.85 189.96,-70.6 196.95,-71.05"/>
</g>
<!-- fastapi_middleware -->
<g id="node4" class="node">
<title>fastapi_middleware</title><style>.edge>path:hover{stroke-width:8}</style>
<ellipse fill="#b6a853" stroke="black" cx="251.09" cy="-283.65" rx="46.32" ry="21.57"/>
<text xml:space="preserve" text-anchor="middle" x="251.09" y="-285.4" font-family="Helvetica,sans-Serif" font-size="10.00" fill="#000000">fastapi.</text>
<text xml:space="preserve" text-anchor="middle" x="251.09" y="-274.15" font-family="Helvetica,sans-Serif" font-size="10.00" fill="#000000">middleware</text>
</g>
<!-- fastapi_middleware&#45;&gt;src_main -->
<g id="edge6" class="edge">
<title>fastapi_middleware&#45;&gt;src_main</title><style>.edge>path:hover{stroke-width:8}</style>
<path fill="none" stroke="black" d="M325.09,-195.57C322.03,-171.47 304.4,-150.11 288.42,-135.31"/>
<polygon fill="#b6a853" stroke="black" points="290.78,-132.73 280.95,-128.78 286.18,-138 290.78,-132.73"/>
<path fill="none" stroke="black" d="M279.66,-266.55C302.04,-251.55 328.83,-227.09 325.09,-197.57"/>
</g>
<!-- fastapi_middleware_cors -->
<g id="node5" class="node">
<title>fastapi_middleware_cors</title><style>.edge>path:hover{stroke-width:8}</style>
<ellipse fill="#b6a853" stroke="black" cx="325.09" cy="-370.74" rx="48.44" ry="29.52"/>
<text xml:space="preserve" text-anchor="middle" x="325.09" y="-378.12" font-family="Helvetica,sans-Serif" font-size="10.00" fill="#000000">fastapi.</text>
<text xml:space="preserve" text-anchor="middle" x="325.09" y="-366.87" font-family="Helvetica,sans-Serif" font-size="10.00" fill="#000000">middleware.</text>
<text xml:space="preserve" text-anchor="middle" x="325.09" y="-355.62" font-family="Helvetica,sans-Serif" font-size="10.00" fill="#000000">cors</text>
</g>
<!-- fastapi_middleware_cors&#45;&gt;src_main -->
<g id="edge7" class="edge">
<title>fastapi_middleware_cors&#45;&gt;src_main</title><style>.edge>path:hover{stroke-width:8}</style>
<path fill="none" stroke="black" d="M327.29,-340.97C329.4,-306.66 331.44,-247.68 325.09,-197.57"/>
</g>
<!-- numpy -->
<g id="node6" class="node">
<title>numpy</title><style>.edge>path:hover{stroke-width:8}</style>
<ellipse fill="#59d926" stroke="black" cx="656.09" cy="-491.26" rx="27" ry="18"/>
<text xml:space="preserve" text-anchor="middle" x="656.09" y="-487.39" font-family="Helvetica,sans-Serif" font-size="10.00" fill="#000000">numpy</text>
</g>
<!-- sentence_transformers_SentenceTransformer -->
<g id="node10" class="node">
<title>sentence_transformers_SentenceTransformer</title><style>.edge>path:hover{stroke-width:8}</style>
<polygon fill="blue" stroke="black" points="715.46,-388.74 596.71,-388.74 596.71,-352.74 715.46,-352.74 715.46,-388.74"/>
<text xml:space="preserve" text-anchor="middle" x="656.09" y="-372.49" font-family="Helvetica,sans-Serif" font-size="10.00" fill="white">sentence_transformers.</text>
<text xml:space="preserve" text-anchor="middle" x="656.09" y="-361.24" font-family="Helvetica,sans-Serif" font-size="10.00" fill="white">SentenceTransformer</text>
</g>
<!-- numpy&#45;&gt;sentence_transformers_SentenceTransformer -->
<g id="edge8" class="edge">
<title>numpy&#45;&gt;sentence_transformers_SentenceTransformer</title><style>.edge>path:hover{stroke-width:8}</style>
<path fill="none" stroke="black" d="M656.09,-436.26C654.53,-424.6 654.25,-411.65 654.46,-400.43"/>
<polygon fill="#59d926" stroke="black" points="657.95,-400.7 654.79,-390.59 650.96,-400.47 657.95,-400.7"/>
</g>
<!-- numpy&#45;&gt;src_usecases_incremental_vectorize -->
<g id="edge9" class="edge">
<title>numpy&#45;&gt;src_usecases_incremental_vectorize</title><style>.edge>path:hover{stroke-width:8}</style>
<path fill="none" stroke="black" d="M656.09,-436.26C650.67,-402.5 616.23,-419.69 588.09,-400.26 535.47,-363.93 506.43,-363.48 480.09,-305.22 472.19,-287.75 475.26,-280.64 480.09,-262.09 488.35,-230.31 516.76,-230.4 516.09,-197.57"/>
<path fill="none" stroke="black" d="M656.85,-473.04C657.12,-462.66 657.14,-449.18 656.09,-437.26"/>
</g>
<!-- src_usecases_search_memos -->
<g id="node20" class="node">
<title>src_usecases_search_memos</title><style>.edge>path:hover{stroke-width:8}</style>
<ellipse fill="#8f3d83" stroke="black" cx="649.09" cy="-29.52" rx="58.51" ry="29.52"/>
<text xml:space="preserve" text-anchor="middle" x="649.09" y="-36.9" font-family="Helvetica,sans-Serif" font-size="10.00" fill="#ffffff">src.</text>
<text xml:space="preserve" text-anchor="middle" x="649.09" y="-25.65" font-family="Helvetica,sans-Serif" font-size="10.00" fill="#ffffff">usecases.</text>
<text xml:space="preserve" text-anchor="middle" x="649.09" y="-14.4" font-family="Helvetica,sans-Serif" font-size="10.00" fill="#ffffff">search_memos</text>
</g>
<!-- numpy&#45;&gt;src_usecases_search_memos -->
<g id="edge10" class="edge">
<title>numpy&#45;&gt;src_usecases_search_memos</title><style>.edge>path:hover{stroke-width:8}</style>
<path fill="none" stroke="black" d="M656.09,-436.26C651.55,-402.37 704.12,-428.03 724.09,-400.26 754.49,-357.99 727.59,-334.37 743.09,-284.65"/>
</g>
<!-- pydantic -->
<g id="node7" class="node">
<title>pydantic</title><style>.edge>path:hover{stroke-width:8}</style>
<ellipse fill="#40c089" stroke="black" cx="177.09" cy="-370.74" rx="31.21" ry="18"/>
<text xml:space="preserve" text-anchor="middle" x="177.09" y="-366.87" font-family="Helvetica,sans-Serif" font-size="10.00" fill="#000000">pydantic</text>
</g>
<!-- src_config -->
<g id="node11" class="node">
<title>src_config</title><style>.edge>path:hover{stroke-width:8}</style>
<ellipse fill="#b83da6" stroke="black" cx="262.09" cy="-196.57" rx="34.76" ry="18"/>
<text xml:space="preserve" text-anchor="middle" x="262.09" y="-192.69" font-family="Helvetica,sans-Serif" font-size="10.00" fill="#ffffff">src.config</text>
</g>
<!-- pydantic&#45;&gt;src_config -->
<g id="edge11" class="edge">
<title>pydantic&#45;&gt;src_config</title><style>.edge>path:hover{stroke-width:8}</style>
<path fill="none" stroke="black" d="M171.54,-352.79C166.57,-334.1 162.14,-304.09 177.09,-284.65"/>
</g>
<!-- pydantic_settings -->
<g id="node8" class="node">
<title>pydantic_settings</title><style>.edge>path:hover{stroke-width:8}</style>
<ellipse fill="#538cb6" stroke="black" cx="73.09" cy="-370.74" rx="54.73" ry="18"/>
<text xml:space="preserve" text-anchor="middle" x="73.09" y="-366.87" font-family="Helvetica,sans-Serif" font-size="10.00" fill="#000000">pydantic_settings</text>
</g>
<!-- pydantic_settings&#45;&gt;src_config -->
<g id="edge12" class="edge">
<title>pydantic_settings&#45;&gt;src_config</title><style>.edge>path:hover{stroke-width:8}</style>
<path fill="none" stroke="black" d="M177.09,-282.65C194.92,-259.47 218.69,-236.18 236.56,-219.85"/>
<polygon fill="#538cb6" stroke="black" points="238.59,-222.72 243.68,-213.43 233.91,-217.52 238.59,-222.72"/>
<path fill="none" stroke="black" d="M97.7,-354.43C120.7,-339.11 154.76,-313.68 177.09,-284.65"/>
</g>
<!-- sentence_transformers -->
<g id="node9" class="node">
<title>sentence_transformers</title><style>.edge>path:hover{stroke-width:8}</style>
<polygon fill="blue" stroke="black" points="714.96,-301.65 599.21,-301.65 599.21,-265.65 714.96,-265.65 714.96,-301.65"/>
<text xml:space="preserve" text-anchor="middle" x="657.09" y="-279.78" font-family="Helvetica,sans-Serif" font-size="10.00" fill="white">sentence_transformers</text>
</g>
<!-- sentence_transformers&#45;&gt;src_usecases_incremental_vectorize -->
<g id="edge13" class="edge">
<title>sentence_transformers&#45;&gt;src_usecases_incremental_vectorize</title><style>.edge>path:hover{stroke-width:8}</style>
<path fill="none" stroke="black" d="M649.09,-112.04C608.91,-54.27 408.57,-37.42 289.17,-32.52"/>
<polygon fill="blue" stroke="black" points="289.52,-29.03 279.39,-32.14 289.24,-36.02 289.52,-29.03"/>
<path fill="none" stroke="black" d="M661.8,-265.23C669.59,-232.36 681.3,-160.36 649.09,-114.04"/>
</g>
<!-- sentence_transformers&#45;&gt;src_usecases_search_memos -->
<g id="edge14" class="edge">
<title>sentence_transformers&#45;&gt;src_usecases_search_memos</title><style>.edge>path:hover{stroke-width:8}</style>
<path fill="none" stroke="black" d="M649.09,-112.04C640.74,-100.03 639.13,-84.43 640.18,-70.09"/>
<polygon fill="blue" stroke="black" points="643.62,-70.81 641.34,-60.47 636.67,-69.98 643.62,-70.81"/>
</g>
<!-- sentence_transformers_SentenceTransformer&#45;&gt;sentence_transformers -->
<g id="edge15" class="edge">
<title>sentence_transformers_SentenceTransformer&#45;&gt;sentence_transformers</title><style>.edge>path:hover{stroke-width:8}</style>
<path fill="none" stroke="black" d="M656.29,-352.52C656.42,-341.29 656.6,-326.37 656.75,-313.37"/>
<polygon fill="blue" stroke="black" points="660.25,-313.69 656.87,-303.65 653.25,-313.61 660.25,-313.69"/>
</g>
<!-- sentence_transformers_SentenceTransformer&#45;&gt;src_usecases_incremental_vectorize -->
<g id="edge16" class="edge">
<title>sentence_transformers_SentenceTransformer&#45;&gt;src_usecases_incremental_vectorize</title><style>.edge>path:hover{stroke-width:8}</style>
<path fill="none" stroke="black" d="M636.32,-352.31C622.65,-339.82 604.43,-322.26 590.09,-305.22 571.4,-283.01 516.65,-226.59 516.09,-197.57"/>
</g>
<!-- sentence_transformers_SentenceTransformer&#45;&gt;src_usecases_search_memos -->
<g id="edge17" class="edge">
<title>sentence_transformers_SentenceTransformer&#45;&gt;src_usecases_search_memos</title><style>.edge>path:hover{stroke-width:8}</style>
<path fill="none" stroke="black" d="M687.01,-352.44C709.08,-337.81 736.06,-314.47 743.09,-284.65"/>
<path fill="none" stroke="black" d="M743.09,-282.65C755.04,-231.97 740.22,-214.3 762.09,-167.04 775.07,-139 824.48,-139.58 807.09,-114.04"/>
<path fill="none" stroke="black" d="M807.09,-112.04C799.47,-101.42 794.35,-101.68 783.09,-95.04 757.59,-80.02 728.06,-65.51 703.22,-54.07"/>
<polygon fill="blue" stroke="black" points="704.82,-50.95 694.27,-49.99 701.92,-57.32 704.82,-50.95"/>
</g>
<!-- src_config&#45;&gt;src_main -->
<g id="edge18" class="edge">
<title>src_config&#45;&gt;src_main</title><style>.edge>path:hover{stroke-width:8}</style>
<path fill="none" stroke="black" d="M261.88,-178.28C261.75,-167.9 261.58,-154.45 261.44,-142.53"/>
<polygon fill="#b83da6" stroke="black" points="264.94,-142.78 261.32,-132.82 257.94,-142.86 264.94,-142.78"/>
</g>
<!-- src_domain -->
<g id="node12" class="node">
<title>src_domain</title><style>.edge>path:hover{stroke-width:8}</style>
<ellipse fill="#f316d4" stroke="black" cx="899.09" cy="-196.57" rx="37.87" ry="18"/>
<text xml:space="preserve" text-anchor="middle" x="899.09" y="-192.69" font-family="Helvetica,sans-Serif" font-size="10.00" fill="#ffffff">src.domain</text>
</g>
<!-- src_usecases_add_memo -->
<g id="node15" class="node">
<title>src_usecases_add_memo</title><style>.edge>path:hover{stroke-width:8}</style>
<ellipse fill="#a44697" stroke="black" cx="892.09" cy="-29.52" rx="45.25" ry="29.52"/>
<text xml:space="preserve" text-anchor="middle" x="892.09" y="-36.9" font-family="Helvetica,sans-Serif" font-size="10.00" fill="#ffffff">src.</text>
<text xml:space="preserve" text-anchor="middle" x="892.09" y="-25.65" font-family="Helvetica,sans-Serif" font-size="10.00" fill="#ffffff">usecases.</text>
<text xml:space="preserve" text-anchor="middle" x="892.09" y="-14.4" font-family="Helvetica,sans-Serif" font-size="10.00" fill="#ffffff">add_memo</text>
</g>
<!-- src_domain&#45;&gt;src_usecases_add_memo -->
<g id="edge19" class="edge">
<title>src_domain&#45;&gt;src_usecases_add_memo</title><style>.edge>path:hover{stroke-width:8}</style>
<path fill="none" stroke="black" d="M893.64,-178.53C889.11,-161.92 884.14,-136.02 889.09,-114.04"/>
</g>
<!-- src_usecases_create_memo -->
<g id="node16" class="node">
<title>src_usecases_create_memo</title><style>.edge>path:hover{stroke-width:8}</style>
<ellipse fill="#a44697" stroke="black" cx="1008.09" cy="-29.52" rx="53.21" ry="29.52"/>
<text xml:space="preserve" text-anchor="middle" x="1008.09" y="-36.9" font-family="Helvetica,sans-Serif" font-size="10.00" fill="#ffffff">src.</text>
<text xml:space="preserve" text-anchor="middle" x="1008.09" y="-25.65" font-family="Helvetica,sans-Serif" font-size="10.00" fill="#ffffff">usecases.</text>
<text xml:space="preserve" text-anchor="middle" x="1008.09" y="-14.4" font-family="Helvetica,sans-Serif" font-size="10.00" fill="#ffffff">create_memo</text>
</g>
<!-- src_domain&#45;&gt;src_usecases_create_memo -->
<g id="edge20" class="edge">
<title>src_domain&#45;&gt;src_usecases_create_memo</title><style>.edge>path:hover{stroke-width:8}</style>
<path fill="none" stroke="black" d="M900.92,-178.19C903.69,-160.09 910.51,-131.93 927.09,-114.04"/>
</g>
<!-- src_domain&#45;&gt;src_usecases_incremental_vectorize -->
<g id="edge21" class="edge">
<title>src_domain&#45;&gt;src_usecases_incremental_vectorize</title><style>.edge>path:hover{stroke-width:8}</style>
<path fill="none" stroke="black" d="M876.43,-181.83C846.5,-163.67 797.08,-133.67 793.09,-131.04 782.17,-123.86 780.78,-119.89 769.09,-114.04"/>
</g>
<!-- src_usecases_rebuild_index -->
<g id="node19" class="node">
<title>src_usecases_rebuild_index</title><style>.edge>path:hover{stroke-width:8}</style>
<ellipse fill="#a44697" stroke="black" cx="777.09" cy="-29.52" rx="51.62" ry="29.52"/>
<text xml:space="preserve" text-anchor="middle" x="777.09" y="-36.9" font-family="Helvetica,sans-Serif" font-size="10.00" fill="#ffffff">src.</text>
<text xml:space="preserve" text-anchor="middle" x="777.09" y="-25.65" font-family="Helvetica,sans-Serif" font-size="10.00" fill="#ffffff">usecases.</text>
<text xml:space="preserve" text-anchor="middle" x="777.09" y="-14.4" font-family="Helvetica,sans-Serif" font-size="10.00" fill="#ffffff">rebuild_index</text>
</g>
<!-- src_domain&#45;&gt;src_usecases_rebuild_index -->
<g id="edge22" class="edge">
<title>src_domain&#45;&gt;src_usecases_rebuild_index</title><style>.edge>path:hover{stroke-width:8}</style>
<path fill="none" stroke="black" d="M886.77,-179.28C875.37,-163.43 858.75,-138.25 849.09,-114.04"/>
</g>
<!-- src_domain&#45;&gt;src_usecases_search_memos -->
<g id="edge23" class="edge">
<title>src_domain&#45;&gt;src_usecases_search_memos</title><style>.edge>path:hover{stroke-width:8}</style>
<path fill="none" stroke="black" d="M877.7,-181.4C857.05,-166.74 826.19,-142.09 807.09,-114.04"/>
</g>
<!-- src_domain_memo -->
<g id="node13" class="node">
<title>src_domain_memo</title><style>.edge>path:hover{stroke-width:8}</style>
<ellipse fill="#f316d4" stroke="black" cx="807.09" cy="-196.57" rx="35.71" ry="29.52"/>
<text xml:space="preserve" text-anchor="middle" x="807.09" y="-203.94" font-family="Helvetica,sans-Serif" font-size="10.00" fill="#ffffff">src.</text>
<text xml:space="preserve" text-anchor="middle" x="807.09" y="-192.69" font-family="Helvetica,sans-Serif" font-size="10.00" fill="#ffffff">domain.</text>
<text xml:space="preserve" text-anchor="middle" x="807.09" y="-181.44" font-family="Helvetica,sans-Serif" font-size="10.00" fill="#ffffff">memo</text>
</g>
<!-- src_domain_memo&#45;&gt;src_usecases_add_memo -->
<g id="edge24" class="edge">
<title>src_domain_memo&#45;&gt;src_usecases_add_memo</title><style>.edge>path:hover{stroke-width:8}</style>
<path fill="none" stroke="black" d="M832.41,-175.67C855.19,-156.94 885.61,-129.51 889.09,-114.04"/>
<path fill="none" stroke="black" d="M889.09,-112.04C892.1,-98.69 893.26,-83.79 893.54,-70.42"/>
<polygon fill="#f316d4" stroke="black" points="897.04,-70.68 893.58,-60.66 890.04,-70.65 897.04,-70.68"/>
</g>
<!-- src_domain_memo&#45;&gt;src_usecases_create_memo -->
<g id="edge25" class="edge">
<title>src_domain_memo&#45;&gt;src_usecases_create_memo</title><style>.edge>path:hover{stroke-width:8}</style>
<path fill="none" stroke="black" d="M927.09,-112.04C942.2,-95.75 959.49,-78.2 974.21,-63.58"/>
<polygon fill="#f316d4" stroke="black" points="976.37,-66.36 981.01,-56.84 971.44,-61.39 976.37,-66.36"/>
<path fill="none" stroke="black" d="M834.99,-177.56C868.09,-156.06 919.73,-121.99 927.09,-114.04"/>
</g>
<!-- src_domain_memo&#45;&gt;src_usecases_incremental_vectorize -->
<g id="edge26" class="edge">
<title>src_domain_memo&#45;&gt;src_usecases_incremental_vectorize</title><style>.edge>path:hover{stroke-width:8}</style>
<path fill="none" stroke="black" d="M769.09,-112.04C686.54,-70.73 426.44,-46.6 287.93,-36.36"/>
<polygon fill="#f316d4" stroke="black" points="288.28,-32.87 278.05,-35.64 287.77,-39.86 288.28,-32.87"/>
<path fill="none" stroke="black" d="M802.89,-166.96C798.31,-147.63 788.78,-123.9 769.09,-114.04"/>
</g>
<!-- src_domain_memo&#45;&gt;src_usecases_rebuild_index -->
<g id="edge27" class="edge">
<title>src_domain_memo&#45;&gt;src_usecases_rebuild_index</title><style>.edge>path:hover{stroke-width:8}</style>
<path fill="none" stroke="black" d="M829.94,-173.62C843.82,-157.51 857.41,-134.89 849.09,-114.04"/>
<path fill="none" stroke="black" d="M849.09,-112.04C841.54,-93.13 827.58,-75.69 813.94,-61.83"/>
<polygon fill="#f316d4" stroke="black" points="816.69,-59.62 807.09,-55.16 811.81,-64.64 816.69,-59.62"/>
</g>
<!-- src_domain_memo&#45;&gt;src_usecases_search_memos -->
<g id="edge28" class="edge">
<title>src_domain_memo&#45;&gt;src_usecases_search_memos</title><style>.edge>path:hover{stroke-width:8}</style>
<path fill="none" stroke="black" d="M814.55,-167.2C817.28,-150.36 817.53,-129.37 807.09,-114.04"/>
</g>
</g>
</svg>
